<svg width="350" height="350" xmlns="http://www.w3.org/2000/svg" stroke="null" style="vector-effect: non-scaling-stroke;">
 <!-- Created with Method Draw - http://github.com/duopixel/Method-Draw/ -->

 <g stroke="null">
  <title stroke="null">background</title>
  <rect stroke="null" fill="none" id="canvas_background" height="352" width="352" y="-1" x="-1"/>
  <g stroke="null" style="vector-effect: non-scaling-stroke;" display="none" overflow="visible" y="0" x="0" height="100%" width="100%" id="canvasGrid">
   <rect fill="url(#gridpattern)" stroke-width="0" y="0" x="0" height="100%" width="100%"/>
  </g>
 </g>
 <g stroke="null">
  <title stroke="null">Layer 1</title>
  <g stroke="null" id="svg_5">
   <path stroke="null" id="svg_4" d="m316.622999,123.804405a83.299918,73.095387 0 0 0 -39.799362,61.483142a81.06628,71.135378 0 0 0 49.331549,65.245226a193.689614,169.96196 0 0 1 -25.262258,45.796993c-15.727763,19.867367 -32.173151,39.732708 -57.195431,39.732708s-31.457833,-12.756259 -60.294372,-12.756259c-28.121221,0 -38.131056,13.175393 -61.00969,13.175393s-38.844067,-18.403434 -57.195431,-40.988086a225.768159,198.110771 0 0 1 -38.368727,-106.861001c0,-62.736495 46.472586,-95.985784 92.227546,-95.985784c24.30927,0 44.56661,14.009612 59.819032,14.009612c14.537105,0 37.178068,-14.84788 64.821642,-14.84788a86.712676,76.09007 0 0 1 72.925501,31.995936zm-86.03197,-58.553252a82.180791,72.113357 0 0 0 19.542022,-44.950626a35.426693,31.0868 0 0 0 -0.715318,-6.479369a82.344622,72.257118 0 0 0 -54.098797,24.467719a79.905619,70.116902 0 0 0 -20.25734,43.705372a32.743098,28.731954 0 0 0 0.715318,5.85573a27.458976,24.095155 0 0 0 5.004917,0.419134a71.381799,62.63728 0 0 0 49.809197,-23.01796z"/>
  </g>
 </g>
</svg>